<!DOCTYPE svg PUBLIC "-//W3C//DTD SVG 1.1//EN" "http://www.w3.org/Graphics/SVG/1.1/DTD/svg11.dtd">
<!-- Uploaded to: SVG Repo, www.svgrepo.com, Transformed by: SVG Repo Mixer Tools -->
<svg width="64px" height="64px" viewBox="-0.5 0 25 25" fill="none" xmlns="http://www.w3.org/2000/svg">
<g id="SVGRepo_bgCarrier" stroke-width="0"/>
<g id="SVGRepo_tracerCarrier" stroke-linecap="round" stroke-linejoin="round"/>
<g id="SVGRepo_iconCarrier"> <path d="M20.975 8.77C21.265 8.77 21.495 9.01 21.495 9.31V19.53C21.495 19.83 21.265 20.07 20.975 20.07H3.02501C2.73501 20.07 2.505 19.83 2.505 19.53V9.31C2.505 9.01 2.73501 8.77 3.02501 8.77H20.975Z" stroke="#0F0F0F" stroke-miterlimit="10" stroke-linecap="round" stroke-linejoin="round"/> <path d="M12.005 18.02C13.938 18.02 15.505 16.4082 15.505 14.42C15.505 12.4318 13.938 10.82 12.005 10.82C10.072 10.82 8.505 12.4318 8.505 14.42C8.505 16.4082 10.072 18.02 12.005 18.02Z" stroke="#0F0F0F" stroke-miterlimit="10" stroke-linecap="round" stroke-linejoin="round"/> <path d="M18.505 12.39C19.0573 12.39 19.505 11.9423 19.505 11.39C19.505 10.8377 19.0573 10.39 18.505 10.39C17.9527 10.39 17.505 10.8377 17.505 11.39C17.505 11.9423 17.9527 12.39 18.505 12.39Z" fill="#0F0F0F"/> <path d="M9.005 6.77V5.44C9.005 5.16 9.225 4.93 9.505 4.93H14.505C14.785 4.93 15.005 5.16 15.005 5.44V6.77" stroke="#0F0F0F" stroke-miterlimit="10" stroke-linecap="round" stroke-linejoin="round"/> </g>
</svg>